<svg id="Layer_1" data-name="Layer 1" xmlns="http://www.w3.org/2000/svg" width="2.66cm" height="0.6cm" viewBox="0 0 75.43 17.06">
  <defs>
    <style>
      .cls-1 {
        fill: #fff;
        stroke: #2b388f;
        stroke-miterlimit: 10;
        stroke-width: 1.42px;
      }

      .cls-2 {
        fill: #2b388f;
      }
    </style>
  </defs>
  <title>LeftLane_StartOver</title>
  <rect class="cls-1" x="0.71" y="0.71" width="74.01" height="15.64" rx="7.82"/>
  <g>
    <path class="cls-2" d="M57.39,69.13a.45.45,0,0,1-.14.16.29.29,0,0,1-.19.06.46.46,0,0,1-.23-.08l-.3-.17-.39-.17a1.64,1.64,0,0,0-.52-.07,1.14,1.14,0,0,0-.78.23.79.79,0,0,0-.26.61.53.53,0,0,0,.15.39,1.09,1.09,0,0,0,.37.28,4,4,0,0,0,.53.2l.6.2a4.6,4.6,0,0,1,.61.25,2.4,2.4,0,0,1,.53.37,1.58,1.58,0,0,1,.37.53,1.84,1.84,0,0,1,.14.78,2.4,2.4,0,0,1-.17.93,2.1,2.1,0,0,1-.5.75,2.24,2.24,0,0,1-.8.51,3.06,3.06,0,0,1-1.08.18,3.23,3.23,0,0,1-.69-.07,3.58,3.58,0,0,1-.66-.19,4.2,4.2,0,0,1-.6-.3,3.23,3.23,0,0,1-.49-.39l.44-.71a.37.37,0,0,1,.15-.13.33.33,0,0,1,.19-.06.56.56,0,0,1,.28.1l.35.22a2.36,2.36,0,0,0,.45.22,1.65,1.65,0,0,0,.62.1,1.22,1.22,0,0,0,.81-.24.88.88,0,0,0,.29-.71.71.71,0,0,0-.14-.45,1.11,1.11,0,0,0-.38-.28,2.45,2.45,0,0,0-.52-.2l-.61-.18a6.25,6.25,0,0,1-.6-.24,2.19,2.19,0,0,1-.53-.37,1.87,1.87,0,0,1-.37-.57,2.13,2.13,0,0,1-.14-.85,1.91,1.91,0,0,1,.16-.78,1.85,1.85,0,0,1,.47-.68,2.23,2.23,0,0,1,.76-.47,2.8,2.8,0,0,1,1-.18,3.42,3.42,0,0,1,1.21.2,2.59,2.59,0,0,1,.94.56Z" transform="translate(-33.17 -62.51)"/>
    <path class="cls-2" d="M60.34,75.07a1.72,1.72,0,0,1-.62-.1,1.29,1.29,0,0,1-.45-.29,1.27,1.27,0,0,1-.28-.46,2,2,0,0,1-.1-.61V70.83h-.48a.32.32,0,0,1-.19-.07.29.29,0,0,1-.08-.21V70l.83-.15.28-1.34a.28.28,0,0,1,.3-.22h.72v1.57H61.6v1H60.27v2.69a.53.53,0,0,0,.11.34.36.36,0,0,0,.29.12.44.44,0,0,0,.17,0,.33.33,0,0,0,.12,0l.09,0,.09,0a.17.17,0,0,1,.1,0s0,0,.08.09l.41.66a2.07,2.07,0,0,1-.64.34A2.35,2.35,0,0,1,60.34,75.07Z" transform="translate(-33.17 -62.51)"/>
    <path class="cls-2" d="M62.23,70.55a3,3,0,0,1,1-.61,3.31,3.31,0,0,1,1.19-.2,2.1,2.1,0,0,1,.82.15,1.81,1.81,0,0,1,.62.41,1.9,1.9,0,0,1,.39.64,2.37,2.37,0,0,1,.13.81V75h-.63a.78.78,0,0,1-.3,0,.42.42,0,0,1-.16-.23l-.11-.33-.38.3a2.88,2.88,0,0,1-.38.22A2.58,2.58,0,0,1,64,75a2.49,2.49,0,0,1-.49,0,2,2,0,0,1-.62-.09,1.53,1.53,0,0,1-.49-.26,1.21,1.21,0,0,1-.31-.45,1.62,1.62,0,0,1-.11-.61,1.21,1.21,0,0,1,.15-.57,1.31,1.31,0,0,1,.49-.51,3.06,3.06,0,0,1,.94-.39A6.63,6.63,0,0,1,65,72v-.27a1,1,0,0,0-.21-.71.76.76,0,0,0-.59-.23,1.26,1.26,0,0,0-.47.07,2.18,2.18,0,0,0-.34.14l-.26.15a.69.69,0,0,1-.29.07.41.41,0,0,1-.25-.08.52.52,0,0,1-.16-.17ZM65,72.84a5.7,5.7,0,0,0-.84.08,2.15,2.15,0,0,0-.54.17.66.66,0,0,0-.28.23.5.5,0,0,0-.08.27.52.52,0,0,0,.17.43.8.8,0,0,0,.47.12,1.32,1.32,0,0,0,.59-.12,1.87,1.87,0,0,0,.51-.38Z" transform="translate(-33.17 -62.51)"/>
    <path class="cls-2" d="M68.76,70.69a2.24,2.24,0,0,1,.56-.7,1.19,1.19,0,0,1,.75-.25.9.9,0,0,1,.57.16l-.09,1a.23.23,0,0,1-.07.14.33.33,0,0,1-.15,0l-.23,0-.28,0a.93.93,0,0,0-.34.06,1,1,0,0,0-.26.15,1.84,1.84,0,0,0-.21.25,2.5,2.5,0,0,0-.17.33V75H67.46V69.84h.82a.44.44,0,0,1,.29.07.49.49,0,0,1,.11.26Z" transform="translate(-33.17 -62.51)"/>
    <path class="cls-2" d="M73,75.07a1.72,1.72,0,0,1-.62-.1,1.29,1.29,0,0,1-.45-.29,1.14,1.14,0,0,1-.28-.46,2,2,0,0,1-.1-.61V70.83h-.48a.29.29,0,0,1-.19-.07.29.29,0,0,1-.08-.21V70l.83-.15.28-1.34a.28.28,0,0,1,.3-.22h.72v1.57h1.33v1H72.94v2.69a.53.53,0,0,0,.11.34.34.34,0,0,0,.29.12.44.44,0,0,0,.17,0,.33.33,0,0,0,.12,0l.09,0,.09,0a.17.17,0,0,1,.1,0s0,0,.08.09l.41.66a2.07,2.07,0,0,1-.64.34A2.35,2.35,0,0,1,73,75.07Z" transform="translate(-33.17 -62.51)"/>
    <path class="cls-2" d="M84.59,71.36a4,4,0,0,1-.27,1.48,3.47,3.47,0,0,1-1.93,2,4.27,4.27,0,0,1-3,0,3.39,3.39,0,0,1-1.93-2,4,4,0,0,1-.27-1.48,3.92,3.92,0,0,1,.27-1.47,3.39,3.39,0,0,1,1.93-2,4.27,4.27,0,0,1,3,0,3.47,3.47,0,0,1,1.93,2A4,4,0,0,1,84.59,71.36Zm-1.54,0a3.22,3.22,0,0,0-.15-1,2.14,2.14,0,0,0-.43-.77,2,2,0,0,0-.69-.49,2.35,2.35,0,0,0-.91-.16,2.38,2.38,0,0,0-.91.16,2,2,0,0,0-.69.49,2.32,2.32,0,0,0-.44.77,3.82,3.82,0,0,0,0,2,2.32,2.32,0,0,0,.44.77,1.87,1.87,0,0,0,.69.48,2.38,2.38,0,0,0,.91.17,2.34,2.34,0,0,0,.91-.17,1.87,1.87,0,0,0,.69-.48,2.14,2.14,0,0,0,.43-.77A3.24,3.24,0,0,0,83.05,71.36Z" transform="translate(-33.17 -62.51)"/>
    <path class="cls-2" d="M90.24,69.84l-2,5.15H87l-2-5.15h1.14a.39.39,0,0,1,.25.07.28.28,0,0,1,.14.18l.87,2.55c.06.17.11.34.15.5s.08.34.11.5c0-.16.08-.33.13-.5s.09-.33.15-.5l.9-2.55a.3.3,0,0,1,.13-.18.4.4,0,0,1,.24-.07Z" transform="translate(-33.17 -62.51)"/>
    <path class="cls-2" d="M91.76,72.63a1.64,1.64,0,0,0,.41,1.06,1.27,1.27,0,0,0,.91.33,1.77,1.77,0,0,0,.49-.06l.37-.15.28-.15a.51.51,0,0,1,.26-.07.3.3,0,0,1,.25.12l.4.5a2.14,2.14,0,0,1-.49.42,3.11,3.11,0,0,1-.55.27,2.93,2.93,0,0,1-.57.13,3.69,3.69,0,0,1-.56,0,2.79,2.79,0,0,1-1-.18,2.34,2.34,0,0,1-.82-.52,2.64,2.64,0,0,1-.55-.87,3.33,3.33,0,0,1-.2-1.19,2.72,2.72,0,0,1,.18-1A2.28,2.28,0,0,1,91.85,70a2.52,2.52,0,0,1,1.05-.2,2.67,2.67,0,0,1,.91.15A2,2,0,0,1,95,71.11a2.79,2.79,0,0,1,.17,1,1.57,1.57,0,0,1,0,.25.34.34,0,0,1-.05.16.14.14,0,0,1-.09.08.35.35,0,0,1-.16,0Zm2.17-.82a1.35,1.35,0,0,0-.06-.41,1.06,1.06,0,0,0-.18-.35.92.92,0,0,0-.31-.24,1.26,1.26,0,0,0-.46-.08,1,1,0,0,0-.77.28,1.39,1.39,0,0,0-.37.8Z" transform="translate(-33.17 -62.51)"/>
    <path class="cls-2" d="M97.32,70.69a2.24,2.24,0,0,1,.56-.7,1.19,1.19,0,0,1,.75-.25.9.9,0,0,1,.57.16l-.09,1a.23.23,0,0,1-.07.14.33.33,0,0,1-.15,0l-.23,0-.28,0a.93.93,0,0,0-.34.06,1,1,0,0,0-.26.15,1.84,1.84,0,0,0-.21.25,2.5,2.5,0,0,0-.17.33V75H96V69.84h.82a.44.44,0,0,1,.29.07.49.49,0,0,1,.11.26Z" transform="translate(-33.17 -62.51)"/>
    <path class="cls-2" d="M99.83,74.27a.81.81,0,0,1,.23-.57.9.9,0,0,1,.26-.17.87.87,0,0,1,.32-.06.83.83,0,0,1,.32.06.76.76,0,0,1,.43.43.72.72,0,0,1,0,.62.9.9,0,0,1-.17.26A.76.76,0,0,1,101,75a.83.83,0,0,1-.32.06.87.87,0,0,1-.58-.22.9.9,0,0,1-.17-.26A.78.78,0,0,1,99.83,74.27Zm1.47-6.53V70.6c0,.3,0,.6,0,.9s-.08.6-.14.92h-.93c0-.32-.1-.63-.13-.92s0-.6,0-.9V67.74Z" transform="translate(-33.17 -62.51)"/>
  </g>
  <path class="cls-2" d="M47.46,68.21c.1.14.21.27.3.41a4.22,4.22,0,0,1,.61,3.53A4,4,0,0,1,47.31,74l-.05.06-.84-.85a3.09,3.09,0,0,0,.79-3,3,3,0,0,0-1.32-1.82A3.08,3.08,0,0,0,42,73.2l1-1,.64,3.57-.11,0-3.34-.6h-.12l1-1L41.08,74a4.2,4.2,0,0,1-1.14-2.8A4.25,4.25,0,0,1,43,67a4.2,4.2,0,0,1,3.68.56l.42.32Z" transform="translate(-33.17 -62.51)"/>
</svg>
