<svg id="Layer_1" data-name="Layer 1" xmlns="http://www.w3.org/2000/svg" width="3.51cm" height="3.86cm" viewBox="0 0 99.39 109.39">
  <defs>
    <style>
      .cls-1 {
        fill: #2b388f;
      }
    </style>
  </defs>
  <title>LeftLane_Saving</title>
  <g>
    <path class="cls-1" d="M85.82,111.39H73.94v-6.1a63.88,63.88,0,0,1-28.72,0v6.06h-12v-4.12c0-1.76,0-3.51,0-5.27a1.49,1.49,0,0,0-.94-1.55A38.45,38.45,0,0,1,18.55,88.55a56.59,56.59,0,0,1-4-7.35,1.48,1.48,0,0,0-1.63-1.06c-2,.08-3.93,0-5.93,0V63.42c2.13,0,4.2,0,6.28,0,.53,0,.87-.07,1.08-.67,2.74-8,8.28-13.68,15.29-18.1l.94-.62-5.93-8.82a39.41,39.41,0,0,1,5.67,0,75.75,75.75,0,0,1,7.83,1.79,2.42,2.42,0,0,1,1.24,1.13c6.31,11.32,16,16.77,28.86,16a27.78,27.78,0,0,0,18.73-9L88.07,44c1.78,1.25,3.62,2.43,5.33,3.78a33.79,33.79,0,0,1,11.13,14.6c3.27,8.66,2.14,16.86-2.75,24.6A39.45,39.45,0,0,1,87,100.3a1.81,1.81,0,0,0-1.15,1.88C85.87,105.2,85.82,108.22,85.82,111.39ZM35.62,61.47a5.21,5.21,0,0,0-5.29-5.2,5.25,5.25,0,1,0,5.29,5.2Z" transform="translate(-7 -2)"/>
    <path class="cls-1" d="M65.73,47.38a22.69,22.69,0,1,1,22.74-22.3A22.73,22.73,0,0,1,65.73,47.38Zm1.48-10.67a38.84,38.84,0,0,0,4.62-1.89A6.85,6.85,0,0,0,75,27.46c-.74-2.47-2.74-3.41-4.9-4.16-2.48-.86-2.48-.85-2.48-3.54v-3.9l4.91,2,2-2.91a15.17,15.17,0,0,0-7.09-2.69l-.13-1.59h-2l-.11,1.3a36.68,36.68,0,0,0-4.52,2c-2.33,1.44-3.1,3.69-2.76,6.38A5.6,5.6,0,0,0,62,25.16c1,.36,2.38.51,2.86,1.23s.14,2.09.15,3.17V32.8a10.77,10.77,0,0,1-6-2.85L56.7,32.81a14.51,14.51,0,0,0,8.38,3.65v2.25h2.13Z" transform="translate(-7 -2)"/>
    <path class="cls-1" d="M67,32.73v-6A3.37,3.37,0,0,1,70.55,30C70.53,31.54,69,32.75,67,32.73Z" transform="translate(-7 -2)"/>
    <path class="cls-1" d="M64.74,15.94v5.73c-2.26-.55-3.16-1.53-3-3.23C61.85,16.92,62.86,16.05,64.74,15.94Z" transform="translate(-7 -2)"/>
  </g>
</svg>
