<svg id="Layer_1" data-name="Layer 1" xmlns="http://www.w3.org/2000/svg" width="3.17cm" height="2.83cm" viewBox="0 0 89.74 80.3">
  <defs>
    <style>
      .cls-1 {
        fill: #2b388f;
      }
    </style>
  </defs>
  <title>LeftLane_401k</title>
  <g>
    <path class="cls-1" d="M41.91,77.85s-.58-.1-.92-.2c-2.16-.66-4.3-1.47-6.43-2.25a111.37,111.37,0,0,1-16.44-7.22c-7.77-4.36-8.65-13.52-1.52-19.1a38.19,38.19,0,0,1,9.73-5c1.25-.49,3.83-1.22,3.86-1.23s.28-3.24.33-3.56a37,37,0,0,1,2.1-6.89,46.83,46.83,0,0,1,3.28-6.9,44.67,44.67,0,0,1,9.94-11.8c7.69-6.43,14.68-6.47,22.4,0C76.52,20.6,81.49,29.64,83.8,40c.26,1.16.47,3.1.47,3.1s2.12.41,3.19.73a23.87,23.87,0,0,1,11.31,7.05c2.1,2.41,3.58,6,2.12,9.07-1.69,3.63-6.68,5.26-10.09,6.75a109.64,109.64,0,0,1-12.55,4.62A144,144,0,0,1,60.5,75.45c-5.88,1-11.84,1.51-17.74,2.37A5.76,5.76,0,0,1,41.91,77.85Zm15-8.41c6.89-.18,16.43-.69,19.8-7.74,7.09-14.83-.29-38.28-14.64-46.32a9.55,9.55,0,0,0-10.46.3c-6.28,3.94-10.36,9.8-13.35,16.3-4.54,9.89-5.17,20-.52,30.18,3.08,6.73,12.32,7.45,18.73,7.29Zm-23.77-4c-.89-2.92-1.83-5.51-2.45-8.18s-.9-5.36-1.34-8.06C24,50.74,21,53.74,21.25,57.12,21.53,60.8,26.65,64.47,33.14,65.49Zm52-16.14L81.46,65.18C87.4,64,92,60.67,92.06,57.09,92.1,52.6,88.59,51.07,85.13,49.35Z" transform="translate(-11.74 -8.89)"/>
    <path class="cls-1" d="M100.12,65.52a10.73,10.73,0,0,1-2.58,5.14A25.25,25.25,0,0,1,92.27,75a52.48,52.48,0,0,1-6.57,4c-7.66,3.64-16,3.62-24.28,3.36-4.78-.15-13.68-2.46-12.94-2.58.94-.15,3.86-.38,4.8-.52,2.14-.33,4.28-.66,6.41-1A139.81,139.81,0,0,0,98,66.47c.73-.35,1.45-.71,2.18-1.08A.69.69,0,0,0,100.12,65.52Z" transform="translate(-11.74 -8.89)"/>
    <path class="cls-1" d="M28.11,81.22a58,58,0,0,0,6.07-1.43l.49.22A59.27,59.27,0,0,0,52.9,84.83a95.69,95.69,0,0,0,20,0c1.43-.16,2.87-.26,4.29-.51a19.59,19.59,0,0,0,2-.48l1-.29a1.7,1.7,0,0,0,.45-.15c-.81.62-1.62,1.26-2.45,1.85a17,17,0,0,1-4.92,2.18,49.11,49.11,0,0,1-11,1.61l-1.38.07a62.24,62.24,0,0,1-26-3.93C32.49,84.18,29.94,83.18,28.11,81.22Z" transform="translate(-11.74 -8.89)"/>
    <path class="cls-1" d="M17.84,73.31c3.94,1.79,10.66,3.56,13.84,5a54.05,54.05,0,0,1-6,1S20.05,75.94,17.84,73.31Z" transform="translate(-11.74 -8.89)"/>
    <g>
      <path class="cls-1" d="M47.35,46.81V48a.39.39,0,0,1-.1.27.41.41,0,0,1-.3.11h-.61v2.25H44.52V48.36H40.58a.55.55,0,0,1-.35-.12.5.5,0,0,1-.2-.3l-.22-1,4.54-6.1h2v6Zm-2.83,0V44.25c0-.16,0-.33,0-.51s0-.37.05-.57L42,46.81Z" transform="translate(-11.74 -8.89)"/>
      <path class="cls-1" d="M56.54,45.71a8.13,8.13,0,0,1-.28,2.23,4.73,4.73,0,0,1-.76,1.56,3.18,3.18,0,0,1-1.16.92,3.52,3.52,0,0,1-1.45.3,3.44,3.44,0,0,1-1.44-.3,3,3,0,0,1-1.15-.92,4.73,4.73,0,0,1-.76-1.56,9.34,9.34,0,0,1,0-4.46,4.54,4.54,0,0,1,.76-1.56A3,3,0,0,1,51.45,41a3.44,3.44,0,0,1,1.44-.3,3.52,3.52,0,0,1,1.45.3,3.18,3.18,0,0,1,1.16.92,4.54,4.54,0,0,1,.76,1.56A8.13,8.13,0,0,1,56.54,45.71Zm-2.16,0A8.56,8.56,0,0,0,54.25,44a3.11,3.11,0,0,0-.34-1,1.22,1.22,0,0,0-.48-.5,1.09,1.09,0,0,0-.54-.14,1,1,0,0,0-.54.14,1.15,1.15,0,0,0-.47.5,3.39,3.39,0,0,0-.33,1,10.79,10.79,0,0,0,0,3.34,3.39,3.39,0,0,0,.33,1,1.12,1.12,0,0,0,.47.51,1.14,1.14,0,0,0,.54.14,1.21,1.21,0,0,0,.54-.14,1.19,1.19,0,0,0,.48-.51,3.11,3.11,0,0,0,.34-1A8.49,8.49,0,0,0,54.38,45.71Z" transform="translate(-11.74 -8.89)"/>
      <path class="cls-1" d="M65.22,49.11v1.5H59.64v-1.5h1.88v-5c0-.12,0-.25,0-.38s0-.26,0-.39l-1.12.93a.65.65,0,0,1-.29.14.61.61,0,0,1-.27,0,.58.58,0,0,1-.23-.09.39.39,0,0,1-.15-.13l-.66-.87,3.06-2.57h1.72v8.31Z" transform="translate(-11.74 -8.89)"/>
      <path class="cls-1" d="M70.1,40.54v5.65h.3a.59.59,0,0,0,.3-.06.59.59,0,0,0,.2-.19l1.32-2a.83.83,0,0,1,.28-.25.75.75,0,0,1,.39-.08h1.92L73,46.12a2.24,2.24,0,0,1-.6.55,2.37,2.37,0,0,1,.28.27,3.33,3.33,0,0,1,.24.34l2,3.33H73a1,1,0,0,1-.4-.07.63.63,0,0,1-.28-.28L71,47.8a.48.48,0,0,0-.2-.22.62.62,0,0,0-.3,0h-.4v3.08H68V40.54Z" transform="translate(-11.74 -8.89)"/>
    </g>
  </g>
</svg>
