<svg id="Layer_1" data-name="Layer 1" xmlns="http://www.w3.org/2000/svg" width="3.85cm" height="3.48cm" viewBox="0 0 109.21 98.69">
  <defs>
    <style>
      .cls-1 {
        fill: #2b388f;
      }
    </style>
  </defs>
  <title>LeftLane_ExlamationSign</title>
  <g>
    <path class="cls-1" d="M95.64,82.39c1.76.72,6.07,2.68,6.07,2.68l.42.42c2.86,2.82,5.75,5.6,8.5,8.52,2.32,2.48,2.37,5.37.35,7.39a5.3,5.3,0,0,1-7.46-.24c-2.92-2.74-5.7-5.64-8.54-8.48a2.9,2.9,0,0,1-.49-.56c-1-1.78-3-5.63-3-5.63a60.08,60.08,0,0,1-6.17,2.27A18.93,18.93,0,0,1,68.41,55.91c7-5.86,16.82-5.87,24.23,0,6.6,5.19,8.7,14.87,4.92,22.8C97.09,79.68,96.55,80.65,95.64,82.39Zm-14.89,2.7A14.68,14.68,0,1,0,65.89,70.42,14.63,14.63,0,0,0,80.75,85.09Z" transform="translate(-3.23 -4.13)"/>
    <path class="cls-1" d="M57.82,69.77H43.34q-14.15,0-28.28,0c-4.29,0-5.82-2.64-3.69-6.37L39.5,14.19c2.16-3.77,5.15-3.79,7.31,0q10.77,18.7,21.52,37.42l6.44-3.74Q63.93,28.91,53,10c-4.48-7.8-14.8-7.87-19.29-.06Q19.24,35.18,4.86,60.47c-4.46,7.84.71,16.66,9.71,16.68H57.66C57.73,74.7,57.79,72.24,57.82,69.77Z" transform="translate(-3.23 -4.13)"/>
    <path class="cls-1" d="M39.69,37c0-2.27,0-4.54,0-6.8,0-2.42,1.59-4,3.71-4A3.69,3.69,0,0,1,47,30.18q.06,6.89,0,13.78c0,2.52-1.44,4-3.63,4s-3.61-1.51-3.66-4C39.65,41.67,39.69,39.35,39.69,37Z" transform="translate(-3.23 -4.13)"/>
    <path class="cls-1" d="M47,59a3.64,3.64,0,0,1-7.27-.16A3.64,3.64,0,0,1,47,59Z" transform="translate(-3.23 -4.13)"/>
    <path class="cls-1" d="M69.69,70.42a1.11,1.11,0,0,1-1.11-1A10.28,10.28,0,0,1,77.25,58.8a1.12,1.12,0,0,1,1.26.94A1.11,1.11,0,0,1,77.57,61a8,8,0,0,0-6.77,8.26,1.11,1.11,0,0,1-1,1.16Z" transform="translate(-3.23 -4.13)"/>
  </g>
</svg>
