<svg id="Layer_1" data-name="Layer 1" xmlns="http://www.w3.org/2000/svg" width="3.77cm" height="3.47cm" viewBox="0 0 106.84 98.37">
  <defs>
    <style>
      .cls-1 {
        fill: #2b388f;
      }
    </style>
  </defs>
  <title>LeftLane_FAQ_Chat_Icon</title>
  <g>
    <path class="cls-1" d="M54.48,51.81h0a.64.64,0,0,0-.19.35l-.82,2.91a5.61,5.61,0,0,1-3,3.78,10.56,10.56,0,0,1-3.29.74,61.37,61.37,0,0,1-7.79.19c-2.28-.06-4.88.29-7-.73a7.29,7.29,0,0,1-4.2-6c0-.4,0-.8,0-1.31h-6.8V79.67c-7.52,1.11-14.79-3.8-17.2-10.82C1.21,60.34,5.74,48.89,18,47.06c0-2.13,0-4.27,0-6.42a122.71,122.71,0,0,1,.24-12.29A24.85,24.85,0,0,1,48.78,7a83.37,83.37,0,0,1,9.15,3.3,36,36,0,0,0,17,2A19.53,19.53,0,0,0,82.76,9.5a8.31,8.31,0,0,1,12.31,5.3,38.31,38.31,0,0,1,.31,7.28c0,8.16,0,16.32,0,24.48a5.29,5.29,0,0,0,.07.56,20,20,0,0,1,7.63,3,16.38,16.38,0,0,1-6.77,29.59,1.17,1.17,0,0,0-1.15,1.22,21.73,21.73,0,0,1-22.15,19.17H72c-1.68,0-3.15-.17-4.13,1.91-.88,1.9-2.9,2.69-5.13,2.67-3.94,0-7.88.05-11.82,0-4.42,0-7.34-3.6-6.39-7.69A6.08,6.08,0,0,1,50,92.3c4.46-.09,8.93-.12,13.4,0A5.7,5.7,0,0,1,68.55,96c.15.34.56.83.84.83a48.18,48.18,0,0,0,8-.47A18.26,18.26,0,0,0,92.06,78c0-7.63,0-15.26.08-22.89,0-1.08,0-2.17,0-3.38H85.45a27.65,27.65,0,0,1-.91,3.69A6.46,6.46,0,0,1,78.1,59.7q-3.59,0-7.17,0c-2.2,0-4.71.22-6.83-.48a6.56,6.56,0,0,1-4.65-5.65,2.25,2.25,0,0,0-.39-1.48,1.91,1.91,0,0,0-1.43-.37l-2.79,0A.73.73,0,0,0,54.48,51.81ZM21.62,28c.48,0,.84.09,1.2.11a33.06,33.06,0,0,1,10.29,2.3,31.14,31.14,0,0,0,23.52,0,34.53,34.53,0,0,1,20.09-1.56c3.4.7,6.64,2.12,10,3.05a43.9,43.9,0,0,0,5.27.84c0-.42.07-.58.07-.73,0-4.95,0-9.9,0-14.86a5,5,0,0,0-2.78-4.88c-2-1-3.78-.61-5.65.42a23,23,0,0,1-5.08,2.24,34.56,34.56,0,0,1-12.7.66A45.9,45.9,0,0,1,52,11.49a21.64,21.64,0,0,0-9.72-1.88A21.38,21.38,0,0,0,25,19.21,18.76,18.76,0,0,0,21.62,28ZM59.3,48.38c0-.31.05-.5.06-.7.18-4.45,2.6-7,7.08-7.16,4-.14,8.12-.11,12.17,0a6.66,6.66,0,0,1,6.56,6.68c0,.39,0,.77.08,1.12H92V35.93a34.71,34.71,0,0,1-11.12-2.4c-8.12-3.21-16.14-2.77-24.22.3A33.47,33.47,0,0,1,33.29,34c-2-.68-4-1.44-6-1.93s-3.88-.58-5.85-.85V48.35h6.64a2.74,2.74,0,0,0,.1-.45c.35-5.06,3.21-7.59,8.27-7.47,3.41.09,6.82.07,10.23,0a6.94,6.94,0,0,1,7.22,5.48,18.32,18.32,0,0,1,.28,2.45Zm-41.39,28V50.65c-6,.19-11.37,6.24-11.39,12.71C6.5,71.24,12.85,76.1,17.91,76.37Zm77.52,0c5.59-.43,11.73-6,11.42-13.5-.26-6.62-6-12.06-11.42-12.24ZM72.33,43.76c-2,0-4.06,0-6.09,0a3.5,3.5,0,0,0-3.59,3.66c0,1.58-.1,3.16,0,4.74a4.61,4.61,0,0,0,1.44,3.45c1.17.94,2.8.94,4.23.92l5.59-.08a22.48,22.48,0,0,0,5.19-.19,4.18,4.18,0,0,0,2.81-4.2c-.07-1.5,0-3,0-4.5a3.51,3.51,0,0,0-3.79-3.81C76.15,43.74,74.24,43.76,72.33,43.76Zm-31.16,0H35.45a3.67,3.67,0,0,0-4,4c0,1.7,0,3.41,0,5.11a3.53,3.53,0,0,0,2.94,3.47c2.33.19,4.67.19,7,.21,1.94,0,3.87-.09,5.81-.07a3.51,3.51,0,0,0,3.52-3.18c.08-2,.09-4,0-6A3.59,3.59,0,0,0,47,43.73Zm15.52,57.63v0c2.11,0,4.22,0,6.33,0a2.79,2.79,0,0,0,2.69-2.22,2.87,2.87,0,0,0-1.6-3.24,4.61,4.61,0,0,0-1.76-.36c-3.82,0-7.63,0-11.45,0-2,0-3.28,1.14-3.31,2.8s1.33,3,3.37,3S54.78,101.36,56.69,101.36Z" transform="translate(-3.27 -6.29)"/>
    <path class="cls-1" d="M56,79.31a15.24,15.24,0,0,1-9.37-3.63,1.6,1.6,0,0,1-.38-2.37,1.54,1.54,0,0,1,2.44-.17c4.45,3.93,11.51,3.76,16,0a1.61,1.61,0,0,1,2.39.06c.69.67.56,1.65-.33,2.43C63.83,78.24,60.31,79.25,56,79.31Z" transform="translate(-3.27 -6.29)"/>
    <path class="cls-1" d="M73.82,50c0,.52,0,1,0,1.57A1.35,1.35,0,0,1,72.4,53a1.39,1.39,0,0,1-1.65-1.24A17.14,17.14,0,0,1,70.62,49c0-1.18.73-1.84,1.7-1.8s1.53.72,1.54,1.91v1Z" transform="translate(-3.27 -6.29)"/>
    <path class="cls-1" d="M42.71,50.09a11.87,11.87,0,0,1,.08,1.33c-.06.82-.34,1.52-1.31,1.59s-1.82-.32-1.94-1.39a14.52,14.52,0,0,1,0-3,1.47,1.47,0,0,1,1.72-1.47,1.56,1.56,0,0,1,1.47,1.75v1.21Z" transform="translate(-3.27 -6.29)"/>
  </g>
</svg>
