<?xml version="1.0" encoding="utf-8"?>
<!-- Generator: Adobe Illustrator 24.0.2, SVG Export Plug-In . SVG Version: 6.00 Build 0)  -->
<svg version="1.1" id="Layer_1" xmlns="http://www.w3.org/2000/svg" xmlns:xlink="http://www.w3.org/1999/xlink" x="0px" y="0px"
	 viewBox="0 0 141.73 141.73" style="enable-background:new 0 0 141.73 141.73;" xml:space="preserve">
<style type="text/css">
	.st0{fill:#2B388F;}
</style>
<g>
	<path class="st0" d="M128.6,34.97l-23.18-22.81c-1.56-1.54-4.08-1.52-5.61,0.05L86.75,25.47l28.84,28.38l13.05-13.26
		C130.18,39.02,130.17,36.5,128.6,34.97z"/>
	<polygon class="st0" points="32.85,120.73 23,111.04 16.96,127.03 	"/>
	<path class="st0" d="M45.1,98.47c2.93,2.88,7.24,3.25,9.63,0.82l0,0l46.79-49.34L90.9,39.51L44.11,88.85l0,0
		C41.72,91.28,42.16,95.59,45.1,98.47z"/>
	<path class="st0" d="M35.28,80.15C35.28,80.15,35.28,80.16,35.28,80.15c-2.4,2.44-2.78,5.93-0.87,7.81
		c1.91,1.89,5.4,1.45,7.79-0.98c0,0,0,0,0,0L89,37.64l-6.93-6.83L35.28,80.15z"/>
	<path class="st0" d="M56.59,101.12C56.59,101.12,56.59,101.13,56.59,101.12c-2.39,2.43-2.78,5.93-0.87,7.81
		c1.91,1.89,5.4,1.44,7.79-0.99l0,0l46.79-49.34l-6.94-6.82L56.59,101.12z"/>
</g>
</svg>
